<?xml version="1.0" encoding="UTF-8" standalone="no"?>
<svg width="17px" height="17px" viewBox="0 0 17 17" version="1.1" xmlns="http://www.w3.org/2000/svg" xmlns:xlink="http://www.w3.org/1999/xlink" xmlns:sketch="http://www.bohemiancoding.com/sketch/ns">
	<defs></defs>
	<g id="Page-1" stroke="none" stroke-width="1" fill="none" fill-rule="evenodd" sketch:type="MSPage">
		<g id="info" sketch:type="MSLayerGroup">
			<path d="M8.5,17 C13.1944206,17 17,13.1944206 17,8.5 C17,3.80557939 13.1944206,0 8.5,0 C3.80557939,0 0,3.80557939 0,8.5 C0,13.1944206 3.80557939,17 8.5,17 L8.5,17 Z" id="Oval-1" fill-opacity="0.503733915" fill="#000" sketch:type="MSShapeGroup"></path>
			<path d="M7.71814672,6.23739837 L9.6486486,6.23739837 L8.2007722,11.2276423 C8.18790212,11.275339 8.17503224,11.320054 8.16216216,11.3617886 C8.14929208,11.4035232 8.1364222,11.4482382 8.12355212,11.495935 C8.08494189,11.6032526 8.05276718,11.7135496 8.02702703,11.8268293 C8.00128687,11.940109 7.98841699,12.06233 7.98841699,12.1934959 L7.98841699,12.2650407 L7.98841699,12.3365854 C8.00128707,12.3962063 8.03024431,12.4558263 8.07528958,12.5154472 C8.12033485,12.575068 8.20077162,12.604878 8.31660232,12.604878 C8.45817317,12.604878 8.64800396,12.548239 8.88610039,12.4349593 C9.12419681,12.3216797 9.5521205,12.1159907 10.1698842,11.8178862 L10.1891892,12.7121951 C10.1891892,12.9387545 10.0315331,13.1444435 9.7162162,13.3292683 C9.4008993,13.5140931 9.05019498,13.6601621 8.66409266,13.7674797 C8.40669112,13.8390247 8.15894585,13.8956637 7.92084942,13.9373984 C7.68275299,13.979133 7.4929222,14 7.35135135,14 C6.93950888,14 6.61132683,13.895665 6.36679537,13.6869919 C6.1222639,13.4783187 6,13.1653137 6,12.7479675 L6,12.6764228 L6,12.604878 C6.01287008,12.4260154 6.03860985,12.2441744 6.07722008,12.0593496 C6.11583031,11.8745248 6.15443996,11.6986458 6.19305019,11.5317073 C6.21879035,11.4720864 6.24131264,11.4094854 6.26061776,11.3439024 C6.27992288,11.2783195 6.29601023,11.2157185 6.30888031,11.1560976 L7.71814672,6.23739837 L7.71814672,6.23739837 Z M8.99227799,5.34308943 C8.73487645,5.34308943 8.53539324,5.28943143 8.39382239,5.18211382 C8.25225154,5.07479621 8.15572741,4.95555621 8.1042471,4.82439024 L8.06563707,4.68130081 C8.05276699,4.6336041 8.04633205,4.5859081 8.04633205,4.53821138 C8.04633205,4.1327893 8.17824836,3.7750693 8.44208494,3.46504065 C8.70592153,3.155012 9.03732104,3 9.4362934,3 C9.7323052,3 9.9864854,3.092411 10.1988417,3.27723577 C10.411198,3.46206054 10.5173745,3.69755954 10.5173745,3.98373984 C10.5173745,4.05528491 10.5077221,4.13875291 10.488417,4.23414634 C10.4691119,4.32953977 10.4337197,4.42493177 10.3822394,4.5203252 C10.2921488,4.72303624 10.1377102,4.91083924 9.9189189,5.08373984 C9.7001276,5.25664043 9.39125039,5.34308943 8.99227799,5.34308943 L8.99227799,5.34308943 Z" id="i" fill="#FFF" sketch:type="MSShapeGroup"></path>
		</g>
	</g>
</svg>